<svg xmlns="http://www.w3.org/2000/svg" viewBox="0 0 960 540" font-family="monospace" font-size="11">
<rect width="960" height="540" fill="#1a1a20"/>
<text x="480.0" y="28" fill="#eeeef0" text-anchor="middle" font-size="16" font-weight="bold">P2K #013 — Talking Hedz (real E-mu vocal morph filter)</text>
<text x="480.0" y="45" fill="#999" text-anchor="middle" font-size="11">4-corner morph surface, shape-bank authored, sampleRate=39062.5 Hz</text>
<rect x="70" y="60" width="690" height="420" fill="#0e0e14" stroke="#3a3a46" stroke-width="1"/>
<line x1="70.0" y1="60" x2="70.0" y2="480" stroke="#2a2a35" stroke-width="0.5"/>
<text x="70.0" y="496" fill="#888" text-anchor="middle">20</text>
<line x1="162.9" y1="60" x2="162.9" y2="480" stroke="#2a2a35" stroke-width="0.5"/>
<text x="162.9" y="496" fill="#888" text-anchor="middle">50</text>
<line x1="233.3" y1="60" x2="233.3" y2="480" stroke="#2a2a35" stroke-width="0.5"/>
<text x="233.3" y="496" fill="#888" text-anchor="middle">100</text>
<line x1="303.6" y1="60" x2="303.6" y2="480" stroke="#2a2a35" stroke-width="0.5"/>
<text x="303.6" y="496" fill="#888" text-anchor="middle">200</text>
<line x1="396.5" y1="60" x2="396.5" y2="480" stroke="#2a2a35" stroke-width="0.5"/>
<text x="396.5" y="496" fill="#888" text-anchor="middle">500</text>
<line x1="466.8" y1="60" x2="466.8" y2="480" stroke="#2a2a35" stroke-width="0.5"/>
<text x="466.8" y="496" fill="#888" text-anchor="middle">1k</text>
<line x1="537.1" y1="60" x2="537.1" y2="480" stroke="#2a2a35" stroke-width="0.5"/>
<text x="537.1" y="496" fill="#888" text-anchor="middle">2k</text>
<line x1="630.1" y1="60" x2="630.1" y2="480" stroke="#2a2a35" stroke-width="0.5"/>
<text x="630.1" y="496" fill="#888" text-anchor="middle">5k</text>
<line x1="700.4" y1="60" x2="700.4" y2="480" stroke="#2a2a35" stroke-width="0.5"/>
<text x="700.4" y="496" fill="#888" text-anchor="middle">10k</text>
<line x1="70" y1="480.0" x2="760" y2="480.0" stroke="#2a2a35" stroke-width="0.5"/>
<text x="62" y="484.0" fill="#888" text-anchor="end">-40</text>
<line x1="70" y1="427.5" x2="760" y2="427.5" stroke="#2a2a35" stroke-width="0.5"/>
<text x="62" y="431.5" fill="#888" text-anchor="end">-30</text>
<line x1="70" y1="375.0" x2="760" y2="375.0" stroke="#2a2a35" stroke-width="0.5"/>
<text x="62" y="379.0" fill="#888" text-anchor="end">-20</text>
<line x1="70" y1="322.5" x2="760" y2="322.5" stroke="#2a2a35" stroke-width="0.5"/>
<text x="62" y="326.5" fill="#888" text-anchor="end">-10</text>
<line x1="70" y1="270.0" x2="760" y2="270.0" stroke="#555" stroke-width="1.0"/>
<text x="62" y="274.0" fill="#888" text-anchor="end">+0</text>
<line x1="70" y1="217.5" x2="760" y2="217.5" stroke="#2a2a35" stroke-width="0.5"/>
<text x="62" y="221.5" fill="#888" text-anchor="end">+10</text>
<line x1="70" y1="165.0" x2="760" y2="165.0" stroke="#2a2a35" stroke-width="0.5"/>
<text x="62" y="169.0" fill="#888" text-anchor="end">+20</text>
<line x1="70" y1="112.5" x2="760" y2="112.5" stroke="#2a2a35" stroke-width="0.5"/>
<text x="62" y="116.5" fill="#888" text-anchor="end">+30</text>
<line x1="70" y1="60.0" x2="760" y2="60.0" stroke="#2a2a35" stroke-width="0.5"/>
<text x="62" y="64.0" fill="#888" text-anchor="end">+40</text>
<text x="415.0" y="528" fill="#aaa" text-anchor="middle">Frequency (Hz, log)</text>
<text x="20" y="270.0" fill="#aaa" text-anchor="middle" transform="rotate(-90 20 270.0)">Magnitude (dB)</text>
<polyline points="70.0,206.5 71.4,206.5 72.7,206.4 74.1,206.4 75.4,206.4 76.8,206.4 78.1,206.4 79.5,206.4 80.8,206.4 82.2,206.4 83.5,206.3 84.9,206.3 86.2,206.3 87.6,206.3 88.9,206.3 90.3,206.3 91.6,206.3 93.0,206.2 94.3,206.2 95.7,206.2 97.0,206.2 98.4,206.2 99.7,206.2 101.1,206.1 102.4,206.1 103.8,206.1 105.1,206.1 106.5,206.1 107.8,206.0 109.2,206.0 110.5,206.0 111.9,206.0 113.2,205.9 114.6,205.9 115.9,205.9 117.3,205.9 118.6,205.8 120.0,205.8 121.3,205.8 122.7,205.7 124.0,205.7 125.4,205.7 126.7,205.7 128.1,205.6 129.4,205.6 130.8,205.6 132.1,205.5 133.5,205.5 134.8,205.4 136.2,205.4 137.5,205.4 138.9,205.3 140.2,205.3 141.6,205.2 142.9,205.2 144.3,205.1 145.6,205.1 147.0,205.1 148.3,205.0 149.7,205.0 151.0,204.9 152.4,204.8 153.7,204.8 155.1,204.7 156.4,204.7 157.8,204.6 159.1,204.6 160.5,204.5 161.8,204.4 163.2,204.4 164.5,204.3 165.9,204.2 167.2,204.2 168.6,204.1 169.9,204.0 171.3,203.9 172.6,203.8 174.0,203.8 175.3,203.7 176.7,203.6 178.0,203.5 179.4,203.4 180.7,203.3 182.1,203.2 183.4,203.1 184.8,203.0 186.1,202.9 187.5,202.8 188.8,202.7 190.2,202.6 191.5,202.4 192.9,202.3 194.2,202.2 195.6,202.1 196.9,201.9 198.3,201.8 199.6,201.7 201.0,201.5 202.3,201.4 203.7,201.2 205.0,201.0 206.4,200.9 207.7,200.7 209.1,200.5 210.4,200.4 211.8,200.2 213.1,200.0 214.5,199.8 215.8,199.6 217.2,199.4 218.5,199.2 219.9,199.0 221.2,198.8 222.6,198.5 223.9,198.3 225.3,198.1 226.6,197.8 228.0,197.6 229.3,197.3 230.7,197.0 232.0,196.7 233.4,196.5 234.7,196.2 236.1,195.9 237.4,195.5 238.8,195.2 240.1,194.9 241.5,194.6 242.8,194.2 244.2,193.8 245.5,193.5 246.9,193.1 248.2,192.7 249.6,192.3 250.9,191.9 252.3,191.5 253.6,191.0 255.0,190.6 256.3,190.1 257.7,189.6 259.0,189.2 260.4,188.7 261.7,188.2 263.1,187.6 264.4,187.1 265.8,186.6 267.1,186.0 268.5,185.4 269.8,184.9 271.2,184.3 272.5,183.7 273.9,183.1 275.2,182.4 276.6,181.8 277.9,181.2 279.3,180.6 280.6,179.9 282.0,179.3 283.3,178.7 284.7,178.1 286.0,177.5 287.4,176.9 288.7,176.4 290.1,175.9 291.4,175.4 292.8,174.9 294.1,174.6 295.5,174.2 296.8,174.0 298.2,173.8 299.5,173.7 300.9,173.7 302.3,173.7 303.6,173.9 305.0,174.2 306.3,174.6 307.7,175.1 309.0,175.7 310.4,176.4 311.7,177.3 313.1,178.2 314.4,179.2 315.8,180.3 317.1,181.5 318.5,182.8 319.8,184.1 321.2,185.5 322.5,187.0 323.9,188.4 325.2,189.9 326.6,191.5 327.9,193.0 329.3,194.6 330.6,196.2 332.0,197.8 333.3,199.4 334.7,201.0 336.0,202.6 337.4,204.2 338.7,205.7 340.1,207.3 341.4,208.8 342.8,210.4 344.1,211.9 345.5,213.4 346.8,214.9 348.2,216.3 349.5,217.8 350.9,219.2 352.2,220.6 353.6,222.0 354.9,223.3 356.3,224.6 357.6,226.0 359.0,227.2 360.3,228.5 361.7,229.7 363.0,231.0 364.4,232.1 365.7,233.3 367.1,234.5 368.4,235.6 369.8,236.7 371.1,237.7 372.5,238.8 373.8,239.8 375.2,240.8 376.5,241.7 377.9,242.7 379.2,243.6 380.6,244.4 381.9,245.3 383.3,246.1 384.6,246.9 386.0,247.7 387.3,248.4 388.7,249.1 390.0,249.8 391.4,250.4 392.7,251.1 394.1,251.6 395.4,252.2 396.8,252.7 398.1,253.2 399.5,253.6 400.8,254.1 402.2,254.4 403.5,254.8 404.9,255.1 406.2,255.4 407.6,255.6 408.9,255.8 410.3,255.9 411.6,256.1 413.0,256.1 414.3,256.2 415.7,256.1 417.0,256.1 418.4,256.0 419.7,255.8 421.1,255.6 422.4,255.4 423.8,255.0 425.1,254.7 426.5,254.3 427.8,253.8 429.2,253.3 430.5,252.7 431.9,252.0 433.2,251.3 434.6,250.6 435.9,249.8 437.3,248.9 438.6,248.0 440.0,247.1 441.3,246.1 442.7,245.1 444.0,244.2 445.4,243.2 446.7,242.3 448.1,241.5 449.4,240.9 450.8,240.5 452.1,240.2 453.5,240.3 454.8,240.7 456.2,241.4 457.5,242.5 458.9,244.0 460.2,245.7 461.6,247.7 462.9,249.9 464.3,252.2 465.6,254.7 467.0,257.1 468.3,259.6 469.7,262.1 471.0,264.5 472.4,266.8 473.7,268.9 475.1,270.9 476.4,272.8 477.8,274.5 479.1,276.1 480.5,277.4 481.8,278.6 483.2,279.6 484.5,280.3 485.9,280.9 487.2,281.3 488.6,281.5 489.9,281.4 491.3,281.2 492.6,280.8 494.0,280.2 495.3,279.4 496.7,278.4 498.0,277.2 499.4,275.8 500.7,274.3 502.1,272.6 503.4,270.9 504.8,269.1 506.1,267.3 507.5,265.7 508.8,264.5 510.2,263.8 511.5,263.9 512.9,264.8 514.2,266.8 515.6,269.6 516.9,273.2 518.3,277.5 519.6,282.0 521.0,286.8 522.3,291.6 523.7,296.5 525.0,301.2 526.4,305.7 527.7,310.0 529.1,314.1 530.5,317.8 531.8,321.2 533.2,324.0 534.5,326.3 535.9,327.9 537.2,328.7 538.6,328.6 539.9,327.7 541.3,325.7 542.6,322.7 544.0,318.6 545.3,313.2 546.7,306.4 548.0,297.7 549.4,286.1 550.7,269.9 552.1,244.6 553.4,216.1 554.8,247.4 556.1,275.3 557.5,294.3 558.8,308.8 560.2,320.8 561.5,331.2 562.9,340.6 564.2,349.4 565.6,357.7 566.9,365.8 568.3,373.8 569.6,381.6 571.0,389.4 572.3,397.0 573.7,404.2 575.0,410.4 576.4,415.1 577.7,417.5 579.1,417.5 580.4,415.5 581.8,412.3 583.1,408.4 584.5,404.3 585.8,400.3 587.2,396.4 588.5,392.7 589.9,389.2 591.2,385.9 592.6,382.7 593.9,379.7 595.3,376.8 596.6,373.9 598.0,371.2 599.3,368.4 600.7,365.7 602.0,363.0 603.4,360.2 604.7,357.4 606.1,354.6 607.4,351.7 608.8,348.7 610.1,345.6 611.5,342.4 612.8,339.1 614.2,335.8 615.5,332.5 616.9,329.4 618.2,326.8 619.6,324.9 620.9,324.3 622.3,325.2 623.6,327.7 625.0,331.7 626.3,336.8 627.7,342.5 629.0,348.6 630.4,354.9 631.7,361.3 633.1,367.7 634.4,374.1 635.8,380.5 637.1,386.9 638.5,393.5 639.8,400.1 641.2,407.0 642.5,414.2 643.9,421.7 645.2,429.8 646.6,438.7 647.9,448.6 649.3,460.1 650.6,474.0 652.0,480.0 653.3,480.0 654.7,480.0 656.0,480.0 657.4,480.0 658.7,480.0 660.1,477.5 661.4,467.5 662.8,459.4 664.1,452.6 665.5,446.7 666.8,441.3 668.2,436.3 669.5,431.5 670.9,426.9 672.2,422.3 673.6,417.6 674.9,412.9 676.3,407.9 677.6,402.6 679.0,397.0 680.3,391.0 681.7,384.4 683.0,377.2 684.4,369.2 685.7,360.2 687.1,349.8 688.4,337.6 689.8,322.9 691.1,304.8 692.5,285.6 693.8,281.7 695.2,296.2 696.5,310.7 697.9,321.9 699.2,330.4 700.6,337.1 701.9,342.6 703.3,347.0 704.6,350.7 706.0,353.8 707.3,356.5 708.7,358.8 710.0,360.8 711.4,362.6 712.7,364.1 714.1,365.5 715.4,366.7 716.8,367.8 718.1,368.8 719.5,369.6 720.8,370.4 722.2,371.1 723.5,371.8 724.9,372.3 726.2,372.9 727.6,373.3 728.9,373.8 730.3,374.2 731.6,374.5 733.0,374.9 734.3,375.2 735.7,375.5 737.0,375.7 738.4,376.0 739.7,376.2 741.1,376.4 742.4,376.6 743.8,376.7 745.1,376.9 746.5,377.0 747.8,377.1 749.2,377.3 750.5,377.4 751.9,377.5 753.2,377.6 754.6,377.6 755.9,377.7 757.3,377.8 758.6,377.8 760.0,377.9" fill="none" stroke="#4aa3ff" stroke-width="1.6" opacity="0.9"><title>M0_Q0</title></polyline>
<polyline points="70.0,206.6 71.4,206.5 72.7,206.5 74.1,206.5 75.4,206.5 76.8,206.5 78.1,206.5 79.5,206.5 80.8,206.5 82.2,206.5 83.5,206.4 84.9,206.4 86.2,206.4 87.6,206.4 88.9,206.4 90.3,206.4 91.6,206.4 93.0,206.3 94.3,206.3 95.7,206.3 97.0,206.3 98.4,206.3 99.7,206.3 101.1,206.2 102.4,206.2 103.8,206.2 105.1,206.2 106.5,206.2 107.8,206.2 109.2,206.1 110.5,206.1 111.9,206.1 113.2,206.1 114.6,206.0 115.9,206.0 117.3,206.0 118.6,206.0 120.0,205.9 121.3,205.9 122.7,205.9 124.0,205.9 125.4,205.8 126.7,205.8 128.1,205.8 129.4,205.7 130.8,205.7 132.1,205.7 133.5,205.6 134.8,205.6 136.2,205.6 137.5,205.5 138.9,205.5 140.2,205.5 141.6,205.4 142.9,205.4 144.3,205.3 145.6,205.3 147.0,205.3 148.3,205.2 149.7,205.2 151.0,205.1 152.4,205.1 153.7,205.0 155.1,205.0 156.4,204.9 157.8,204.9 159.1,204.8 160.5,204.7 161.8,204.7 163.2,204.6 164.5,204.6 165.9,204.5 167.2,204.4 168.6,204.4 169.9,204.3 171.3,204.2 172.6,204.1 174.0,204.1 175.3,204.0 176.7,203.9 178.0,203.8 179.4,203.7 180.7,203.6 182.1,203.5 183.4,203.5 184.8,203.4 186.1,203.3 187.5,203.2 188.8,203.1 190.2,202.9 191.5,202.8 192.9,202.7 194.2,202.6 195.6,202.5 196.9,202.4 198.3,202.2 199.6,202.1 201.0,202.0 202.3,201.8 203.7,201.7 205.0,201.5 206.4,201.4 207.7,201.2 209.1,201.1 210.4,200.9 211.8,200.7 213.1,200.6 214.5,200.4 215.8,200.2 217.2,200.0 218.5,199.8 219.9,199.6 221.2,199.4 222.6,199.2 223.9,198.9 225.3,198.7 226.6,198.5 228.0,198.2 229.3,198.0 230.7,197.7 232.0,197.5 233.4,197.2 234.7,196.9 236.1,196.6 237.4,196.3 238.8,196.0 240.1,195.7 241.5,195.4 242.8,195.0 244.2,194.7 245.5,194.3 246.9,193.9 248.2,193.6 249.6,193.2 250.9,192.8 252.3,192.4 253.6,191.9 255.0,191.5 256.3,191.0 257.7,190.6 259.0,190.1 260.4,189.6 261.7,189.1 263.1,188.5 264.4,188.0 265.8,187.5 267.1,186.9 268.5,186.3 269.8,185.7 271.2,185.1 272.5,184.5 273.9,183.8 275.2,183.2 276.6,182.5 277.9,181.9 279.3,181.2 280.6,180.5 282.0,179.8 283.3,179.2 284.7,178.5 286.0,177.8 287.4,177.2 288.7,176.6 290.1,176.0 291.4,175.4 292.8,174.9 294.1,174.4 295.5,174.0 296.8,173.7 298.2,173.5 299.5,173.4 300.9,173.4 302.3,173.5 303.6,173.7 305.0,174.1 306.3,174.6 307.7,175.3 309.0,176.1 310.4,177.0 311.7,178.1 313.1,179.3 314.4,180.7 315.8,182.1 317.1,183.7 318.5,185.3 319.8,187.1 321.2,188.9 322.5,190.7 323.9,192.6 325.2,194.5 326.6,196.5 327.9,198.5 329.3,200.5 330.6,202.5 332.0,204.5 333.3,206.5 334.7,208.6 336.0,210.6 337.4,212.6 338.7,214.6 340.1,216.6 341.4,218.6 342.8,220.6 344.1,222.6 345.5,224.5 346.8,226.5 348.2,228.4 349.5,230.3 350.9,232.3 352.2,234.2 353.6,236.1 354.9,238.0 356.3,239.8 357.6,241.7 359.0,243.5 360.3,245.4 361.7,247.2 363.0,249.1 364.4,250.9 365.7,252.7 367.1,254.5 368.4,256.3 369.8,258.1 371.1,259.9 372.5,261.7 373.8,263.5 375.2,265.2 376.5,267.0 377.9,268.8 379.2,270.6 380.6,272.3 381.9,274.1 383.3,275.9 384.6,277.6 386.0,279.4 387.3,281.1 388.7,282.9 390.0,284.7 391.4,286.4 392.7,288.2 394.1,290.0 395.4,291.7 396.8,293.5 398.1,295.3 399.5,297.1 400.8,298.9 402.2,300.6 403.5,302.4 404.9,304.2 406.2,306.0 407.6,307.8 408.9,309.6 410.3,311.4 411.6,313.2 413.0,315.0 414.3,316.8 415.7,318.6 417.0,320.4 418.4,322.2 419.7,323.9 421.1,325.7 422.4,327.5 423.8,329.2 425.1,331.0 426.5,332.7 427.8,334.4 429.2,336.0 430.5,337.7 431.9,339.3 433.2,340.8 434.6,342.3 435.9,343.8 437.3,345.1 438.6,346.5 440.0,347.7 441.3,348.9 442.7,349.9 444.0,350.9 445.4,351.8 446.7,352.6 448.1,353.3 449.4,353.8 450.8,354.3 452.1,354.7 453.5,354.9 454.8,355.1 456.2,355.1 457.5,355.1 458.9,354.9 460.2,354.7 461.6,354.4 462.9,354.1 464.3,353.6 465.6,353.2 467.0,352.6 468.3,352.0 469.7,351.4 471.0,350.7 472.4,350.0 473.7,349.3 475.1,348.5 476.4,347.7 477.8,346.8 479.1,346.0 480.5,345.1 481.8,344.2 483.2,343.2 484.5,342.2 485.9,341.2 487.2,340.1 488.6,339.0 489.9,337.9 491.3,336.7 492.6,335.5 494.0,334.2 495.3,332.8 496.7,331.3 498.0,329.8 499.4,328.1 500.7,326.4 502.1,324.5 503.4,322.4 504.8,320.1 506.1,317.6 507.5,314.9 508.8,311.8 510.2,308.4 511.5,304.6 512.9,300.2 514.2,295.3 515.6,289.6 516.9,282.9 518.3,275.1 519.6,265.6 521.0,253.9 522.3,239.0 523.7,218.9 525.0,192.9 526.4,187.3 527.7,209.0 529.1,226.0 530.5,237.4 531.8,245.3 533.2,250.8 534.5,254.5 535.9,256.8 537.2,258.0 538.6,258.2 539.9,257.6 541.3,256.1 542.6,253.8 544.0,250.7 545.3,246.8 546.7,242.1 548.0,236.7 549.4,230.5 550.7,224.0 552.1,218.0 553.4,213.7 554.8,212.2 556.1,213.6 557.5,216.8 558.8,220.3 560.2,223.2 561.5,225.0 562.9,225.5 564.2,224.5 565.6,222.3 566.9,219.9 568.3,219.8 569.6,225.3 571.0,235.8 572.3,248.0 573.7,259.5 575.0,269.4 576.4,277.7 577.7,284.4 579.1,289.8 580.4,294.0 581.8,297.2 583.1,299.7 584.5,301.5 585.8,302.8 587.2,303.7 588.5,304.3 589.9,304.5 591.2,304.5 592.6,304.3 593.9,303.9 595.3,303.4 596.6,302.7 598.0,301.8 599.3,300.8 600.7,299.7 602.0,298.4 603.4,297.0 604.7,295.4 606.1,293.7 607.4,291.9 608.8,289.9 610.1,287.7 611.5,285.4 612.8,283.0 614.2,280.4 615.5,277.6 616.9,274.8 618.2,271.9 619.6,269.1 620.9,266.5 622.3,264.2 623.6,262.6 625.0,261.9 626.3,262.1 627.7,263.4 629.0,265.5 630.4,268.4 631.7,271.8 633.1,275.4 634.4,279.1 635.8,282.7 637.1,286.3 638.5,289.7 639.8,292.9 641.2,295.8 642.5,298.6 643.9,301.2 645.2,303.5 646.6,305.6 647.9,307.5 649.3,309.2 650.6,310.7 652.0,311.9 653.3,312.9 654.7,313.7 656.0,314.3 657.4,314.6 658.7,314.7 660.1,314.5 661.4,314.1 662.8,313.4 664.1,312.4 665.5,311.1 666.8,309.5 668.2,307.4 669.5,304.9 670.9,302.0 672.2,298.4 673.6,294.2 674.9,289.1 676.3,283.1 677.6,275.9 679.0,267.4 680.3,258.4 681.7,251.7 683.0,252.6 684.4,261.5 685.7,273.4 687.1,284.9 688.4,295.2 689.8,304.4 691.1,312.6 692.5,320.0 693.8,326.8 695.2,333.0 696.5,338.8 697.9,344.3 699.2,349.5 700.6,354.4 701.9,359.1 703.3,363.6 704.6,368.0 706.0,372.2 707.3,376.4 708.7,380.4 710.0,384.4 711.4,388.3 712.7,392.2 714.1,396.0 715.4,399.8 716.8,403.5 718.1,407.3 719.5,411.1 720.8,414.9 722.2,418.7 723.5,422.5 724.9,426.4 726.2,430.4 727.6,434.4 728.9,438.5 730.3,442.7 731.6,447.0 733.0,451.4 734.3,456.0 735.7,460.7 737.0,465.7 738.4,470.9 739.7,476.3 741.1,480.0 742.4,480.0 743.8,480.0 745.1,480.0 746.5,480.0 747.8,480.0 749.2,480.0 750.5,480.0 751.9,480.0 753.2,480.0 754.6,480.0 755.9,480.0 757.3,480.0 758.6,480.0 760.0,480.0" fill="none" stroke="#6aff9a" stroke-width="1.6" opacity="0.9"><title>M0_Q100</title></polyline>
<polyline points="70.0,206.1 71.4,206.1 72.7,206.1 74.1,206.1 75.4,206.0 76.8,206.0 78.1,206.0 79.5,206.0 80.8,205.9 82.2,205.9 83.5,205.9 84.9,205.8 86.2,205.8 87.6,205.8 88.9,205.8 90.3,205.7 91.6,205.7 93.0,205.7 94.3,205.6 95.7,205.6 97.0,205.6 98.4,205.5 99.7,205.5 101.1,205.4 102.4,205.4 103.8,205.4 105.1,205.3 106.5,205.3 107.8,205.2 109.2,205.2 110.5,205.1 111.9,205.1 113.2,205.0 114.6,205.0 115.9,204.9 117.3,204.9 118.6,204.8 120.0,204.8 121.3,204.7 122.7,204.6 124.0,204.6 125.4,204.5 126.7,204.4 128.1,204.4 129.4,204.3 130.8,204.2 132.1,204.1 133.5,204.1 134.8,204.0 136.2,203.9 137.5,203.8 138.9,203.7 140.2,203.7 141.6,203.6 142.9,203.5 144.3,203.4 145.6,203.3 147.0,203.2 148.3,203.1 149.7,203.0 151.0,202.8 152.4,202.7 153.7,202.6 155.1,202.5 156.4,202.4 157.8,202.2 159.1,202.1 160.5,202.0 161.8,201.8 163.2,201.7 164.5,201.5 165.9,201.4 167.2,201.2 168.6,201.1 169.9,200.9 171.3,200.7 172.6,200.5 174.0,200.4 175.3,200.2 176.7,200.0 178.0,199.8 179.4,199.6 180.7,199.4 182.1,199.1 183.4,198.9 184.8,198.7 186.1,198.4 187.5,198.2 188.8,197.9 190.2,197.7 191.5,197.4 192.9,197.1 194.2,196.8 195.6,196.5 196.9,196.2 198.3,195.9 199.6,195.5 201.0,195.2 202.3,194.8 203.7,194.5 205.0,194.1 206.4,193.7 207.7,193.3 209.1,192.9 210.4,192.4 211.8,192.0 213.1,191.5 214.5,191.0 215.8,190.5 217.2,190.0 218.5,189.5 219.9,188.9 221.2,188.3 222.6,187.7 223.9,187.1 225.3,186.4 226.6,185.7 228.0,185.0 229.3,184.3 230.7,183.5 232.0,182.7 233.4,181.9 234.7,181.0 236.1,180.1 237.4,179.1 238.8,178.1 240.1,177.1 241.5,176.0 242.8,174.8 244.2,173.6 245.5,172.3 246.9,170.9 248.2,169.5 249.6,168.0 250.9,166.4 252.3,164.7 253.6,162.9 255.0,161.0 256.3,158.9 257.7,156.7 259.0,154.3 260.4,151.8 261.7,149.0 263.1,146.0 264.4,142.7 265.8,139.1 267.1,135.1 268.5,130.7 269.8,125.7 271.2,120.1 272.5,113.8 273.9,106.6 275.2,98.6 276.6,90.2 277.9,82.9 279.3,80.2 280.6,84.0 282.0,92.3 283.3,101.8 284.7,110.8 286.0,119.0 287.4,126.3 288.7,132.9 290.1,138.9 291.4,144.3 292.8,149.3 294.1,153.9 295.5,158.2 296.8,162.2 298.2,165.9 299.5,169.5 300.9,172.8 302.3,176.0 303.6,179.1 305.0,182.0 306.3,184.8 307.7,187.5 309.0,190.1 310.4,192.5 311.7,194.9 313.1,197.3 314.4,199.5 315.8,201.7 317.1,203.8 318.5,205.9 319.8,207.9 321.2,209.8 322.5,211.7 323.9,213.6 325.2,215.4 326.6,217.1 327.9,218.9 329.3,220.5 330.6,222.2 332.0,223.8 333.3,225.4 334.7,226.9 336.0,228.4 337.4,229.9 338.7,231.4 340.1,232.8 341.4,234.2 342.8,235.6 344.1,236.9 345.5,238.2 346.8,239.5 348.2,240.8 349.5,242.0 350.9,243.2 352.2,244.4 353.6,245.6 354.9,246.7 356.3,247.9 357.6,249.0 359.0,250.1 360.3,251.1 361.7,252.1 363.0,253.2 364.4,254.1 365.7,255.1 367.1,256.1 368.4,257.0 369.8,257.9 371.1,258.8 372.5,259.6 373.8,260.5 375.2,261.3 376.5,262.1 377.9,262.9 379.2,263.6 380.6,264.3 381.9,265.0 383.3,265.7 384.6,266.4 386.0,267.0 387.3,267.6 388.7,268.2 390.0,268.8 391.4,269.3 392.7,269.8 394.1,270.3 395.4,270.8 396.8,271.2 398.1,271.6 399.5,272.0 400.8,272.3 402.2,272.6 403.5,272.9 404.9,273.1 406.2,273.4 407.6,273.5 408.9,273.7 410.3,273.8 411.6,273.9 413.0,273.9 414.3,273.9 415.7,273.8 417.0,273.7 418.4,273.6 419.7,273.4 421.1,273.1 422.4,272.8 423.8,272.4 425.1,272.0 426.5,271.4 427.8,270.9 429.2,270.2 430.5,269.4 431.9,268.6 433.2,267.6 434.6,266.6 435.9,265.4 437.3,264.1 438.6,262.6 440.0,261.0 441.3,259.2 442.7,257.1 444.0,254.9 445.4,252.3 446.7,249.4 448.1,246.2 449.4,242.4 450.8,238.1 452.1,233.2 453.5,227.3 454.8,220.2 456.2,211.4 457.5,200.1 458.9,184.4 460.2,159.9 461.6,116.2 462.9,141.8 464.3,175.6 465.6,195.7 467.0,209.8 468.3,220.6 469.7,229.3 471.0,236.6 472.4,242.7 473.7,247.9 475.1,252.4 476.4,256.2 477.8,259.5 479.1,262.4 480.5,264.8 481.8,266.7 483.2,268.3 484.5,269.5 485.9,270.4 487.2,270.9 488.6,271.0 489.9,270.7 491.3,270.0 492.6,269.0 494.0,267.5 495.3,265.4 496.7,262.8 498.0,259.6 499.4,255.5 500.7,250.3 502.1,243.7 503.4,235.0 504.8,223.0 506.1,204.9 507.5,171.1 508.8,133.3 510.2,193.8 511.5,222.2 512.9,240.8 514.2,254.9 515.6,266.3 516.9,276.0 518.3,284.5 519.6,292.0 521.0,298.8 522.3,305.0 523.7,310.6 525.0,315.6 526.4,320.1 527.7,324.0 529.1,327.3 530.5,329.8 531.8,331.4 533.2,332.2 534.5,331.9 535.9,330.5 537.2,327.8 538.6,323.9 539.9,318.3 541.3,310.9 542.6,300.9 544.0,286.8 545.3,264.4 546.7,215.2 548.0,224.9 549.4,271.6 550.7,295.6 552.1,312.3 553.4,325.4 554.8,336.4 556.1,346.2 557.5,355.0 558.8,363.4 560.2,371.3 561.5,379.1 562.9,386.8 564.2,394.5 565.6,402.4 566.9,410.3 568.3,418.2 569.6,425.9 571.0,432.7 572.3,437.8 573.7,440.3 575.0,439.7 576.4,436.8 577.7,432.5 579.1,427.7 580.4,422.9 581.8,418.3 583.1,413.9 584.5,409.8 585.8,405.9 587.2,402.2 588.5,398.6 589.9,395.2 591.2,391.9 592.6,388.7 593.9,385.5 595.3,382.2 596.6,379.0 598.0,375.6 599.3,372.1 600.7,368.4 602.0,364.5 603.4,360.3 604.7,355.6 606.1,350.4 607.4,344.5 608.8,337.5 610.1,329.0 611.5,318.2 612.8,303.4 614.2,280.5 615.5,236.9 616.9,255.6 618.2,293.6 619.6,316.0 620.9,332.1 622.3,344.8 623.6,355.7 625.0,365.2 626.3,373.9 627.7,381.9 629.0,389.6 630.4,397.0 631.7,404.2 633.1,411.3 634.4,418.5 635.8,425.9 637.1,433.5 638.5,441.4 639.8,449.9 641.2,459.2 642.5,469.6 643.9,480.0 645.2,480.0 646.6,480.0 647.9,480.0 649.3,480.0 650.6,480.0 652.0,480.0 653.3,480.0 654.7,480.0 656.0,480.0 657.4,480.0 658.7,475.0 660.1,469.8 661.4,465.4 662.8,461.3 664.1,457.7 665.5,454.3 666.8,451.0 668.2,448.0 669.5,445.0 670.9,442.0 672.2,439.0 673.6,436.0 674.9,432.9 676.3,429.7 677.6,426.4 679.0,422.8 680.3,419.1 681.7,415.1 683.0,410.9 684.4,406.4 685.7,401.5 687.1,396.2 688.4,390.5 689.8,384.3 691.1,377.4 692.5,369.8 693.8,361.2 695.2,351.3 696.5,339.5 697.9,324.8 699.2,304.8 700.6,272.1 701.9,132.7 703.3,266.7 704.6,297.1 706.0,314.1 707.3,325.6 708.7,334.2 710.0,340.9 711.4,346.4 712.7,350.9 714.1,354.7 715.4,358.0 716.8,360.8 718.1,363.3 719.5,365.5 720.8,367.5 722.2,369.2 723.5,370.8 724.9,372.2 726.2,373.4 727.6,374.6 728.9,375.6 730.3,376.6 731.6,377.4 733.0,378.2 734.3,379.0 735.7,379.6 737.0,380.2 738.4,380.8 739.7,381.3 741.1,381.8 742.4,382.3 743.8,382.7 745.1,383.0 746.5,383.4 747.8,383.7 749.2,384.0 750.5,384.3 751.9,384.5 753.2,384.7 754.6,384.9 755.9,385.1 757.3,385.3 758.6,385.4 760.0,385.5" fill="none" stroke="#ff6a4a" stroke-width="1.6" opacity="0.9"><title>M100_Q0</title></polyline>
<polyline points="70.0,206.4 71.4,206.4 72.7,206.4 74.1,206.4 75.4,206.3 76.8,206.3 78.1,206.3 79.5,206.3 80.8,206.3 82.2,206.3 83.5,206.3 84.9,206.2 86.2,206.2 87.6,206.2 88.9,206.2 90.3,206.2 91.6,206.1 93.0,206.1 94.3,206.1 95.7,206.1 97.0,206.1 98.4,206.0 99.7,206.0 101.1,206.0 102.4,206.0 103.8,206.0 105.1,205.9 106.5,205.9 107.8,205.9 109.2,205.8 110.5,205.8 111.9,205.8 113.2,205.8 114.6,205.7 115.9,205.7 117.3,205.7 118.6,205.6 120.0,205.6 121.3,205.6 122.7,205.5 124.0,205.5 125.4,205.5 126.7,205.4 128.1,205.4 129.4,205.3 130.8,205.3 132.1,205.3 133.5,205.2 134.8,205.2 136.2,205.1 137.5,205.1 138.9,205.0 140.2,205.0 141.6,204.9 142.9,204.9 144.3,204.8 145.6,204.8 147.0,204.7 148.3,204.6 149.7,204.6 151.0,204.5 152.4,204.4 153.7,204.4 155.1,204.3 156.4,204.2 157.8,204.2 159.1,204.1 160.5,204.0 161.8,203.9 163.2,203.8 164.5,203.8 165.9,203.7 167.2,203.6 168.6,203.5 169.9,203.4 171.3,203.3 172.6,203.2 174.0,203.1 175.3,203.0 176.7,202.9 178.0,202.8 179.4,202.7 180.7,202.5 182.1,202.4 183.4,202.3 184.8,202.2 186.1,202.0 187.5,201.9 188.8,201.7 190.2,201.6 191.5,201.4 192.9,201.3 194.2,201.1 195.6,201.0 196.9,200.8 198.3,200.6 199.6,200.4 201.0,200.2 202.3,200.0 203.7,199.8 205.0,199.6 206.4,199.4 207.7,199.2 209.1,199.0 210.4,198.7 211.8,198.5 213.1,198.3 214.5,198.0 215.8,197.7 217.2,197.5 218.5,197.2 219.9,196.9 221.2,196.6 222.6,196.3 223.9,195.9 225.3,195.6 226.6,195.2 228.0,194.9 229.3,194.5 230.7,194.1 232.0,193.7 233.4,193.3 234.7,192.9 236.1,192.4 237.4,191.9 238.8,191.5 240.1,191.0 241.5,190.4 242.8,189.9 244.2,189.3 245.5,188.7 246.9,188.1 248.2,187.5 249.6,186.8 250.9,186.1 252.3,185.4 253.6,184.6 255.0,183.8 256.3,183.0 257.7,182.1 259.0,181.2 260.4,180.3 261.7,179.3 263.1,178.2 264.4,177.1 265.8,176.0 267.1,174.7 268.5,173.4 269.8,172.0 271.2,170.6 272.5,169.0 273.9,167.4 275.2,165.6 276.6,163.7 277.9,161.7 279.3,159.5 280.6,157.1 282.0,154.6 283.3,151.8 284.7,148.8 286.0,145.4 287.4,141.7 288.7,137.5 290.1,132.8 291.4,127.4 292.8,121.2 294.1,113.9 295.5,105.0 296.8,94.3 298.2,81.2 299.5,67.8 300.9,63.8 302.3,75.1 303.6,90.3 305.0,103.6 306.3,114.8 307.7,124.2 309.0,132.3 310.4,139.4 311.7,145.8 313.1,151.6 314.4,156.9 315.8,161.7 317.1,166.3 318.5,170.5 319.8,174.5 321.2,178.3 322.5,181.9 323.9,185.3 325.2,188.6 326.6,191.8 327.9,194.8 329.3,197.8 330.6,200.6 332.0,203.4 333.3,206.1 334.7,208.7 336.0,211.2 337.4,213.7 338.7,216.2 340.1,218.5 341.4,220.9 342.8,223.2 344.1,225.4 345.5,227.6 346.8,229.8 348.2,231.9 349.5,234.1 350.9,236.1 352.2,238.2 353.6,240.2 354.9,242.2 356.3,244.2 357.6,246.2 359.0,248.2 360.3,250.1 361.7,252.0 363.0,253.9 364.4,255.8 365.7,257.7 367.1,259.6 368.4,261.4 369.8,263.3 371.1,265.1 372.5,267.0 373.8,268.8 375.2,270.6 376.5,272.4 377.9,274.2 379.2,276.0 380.6,277.8 381.9,279.6 383.3,281.4 384.6,283.2 386.0,285.0 387.3,286.8 388.7,288.6 390.0,290.4 391.4,292.2 392.7,294.0 394.1,295.8 395.4,297.6 396.8,299.4 398.1,301.2 399.5,303.0 400.8,304.8 402.2,306.6 403.5,308.4 404.9,310.2 406.2,312.1 407.6,313.9 408.9,315.7 410.3,317.5 411.6,319.4 413.0,321.2 414.3,323.0 415.7,324.8 417.0,326.6 418.4,328.4 419.7,330.2 421.1,332.0 422.4,333.8 423.8,335.5 425.1,337.3 426.5,339.0 427.8,340.6 429.2,342.2 430.5,343.8 431.9,345.3 433.2,346.8 434.6,348.2 435.9,349.5 437.3,350.7 438.6,351.8 440.0,352.8 441.3,353.7 442.7,354.4 444.0,355.1 445.4,355.6 446.7,356.0 448.1,356.2 449.4,356.4 450.8,356.4 452.1,356.2 453.5,356.0 454.8,355.6 456.2,355.1 457.5,354.5 458.9,353.9 460.2,353.1 461.6,352.3 462.9,351.4 464.3,350.4 465.6,349.4 467.0,348.2 468.3,347.1 469.7,345.9 471.0,344.6 472.4,343.3 473.7,341.9 475.1,340.5 476.4,339.0 477.8,337.4 479.1,335.7 480.5,334.0 481.8,332.2 483.2,330.3 484.5,328.3 485.9,326.2 487.2,323.9 488.6,321.5 489.9,318.8 491.3,316.0 492.6,312.8 494.0,309.4 495.3,305.5 496.7,301.2 498.0,296.2 499.4,290.5 500.7,283.7 502.1,275.5 503.4,265.3 504.8,251.6 506.1,231.8 507.5,196.5 508.8,158.0 510.2,214.7 511.5,240.5 512.9,256.4 514.2,267.5 515.6,275.6 516.9,281.6 518.3,286.1 519.6,289.2 521.0,291.3 522.3,292.4 523.7,292.7 525.0,292.1 526.4,290.8 527.7,288.7 529.1,285.9 530.5,282.4 531.8,278.1 533.2,272.8 534.5,266.6 535.9,259.1 537.2,249.9 538.6,238.6 539.9,224.0 541.3,203.7 542.6,170.2 544.0,85.2 545.3,164.1 546.7,190.9 548.0,204.0 549.4,210.5 550.7,212.0 552.1,208.7 553.4,198.5 554.8,173.9 556.1,98.3 557.5,188.7 558.8,224.1 560.2,246.4 561.5,262.8 562.9,275.5 564.2,285.6 565.6,293.8 566.9,300.4 568.3,305.6 569.6,309.8 571.0,313.1 572.3,315.6 573.7,317.4 575.0,318.8 576.4,319.8 577.7,320.4 579.1,320.7 580.4,320.7 581.8,320.5 583.1,320.1 584.5,319.6 585.8,318.8 587.2,317.9 588.5,316.9 589.9,315.7 591.2,314.3 592.6,312.8 593.9,311.1 595.3,309.3 596.6,307.2 598.0,305.0 599.3,302.5 600.7,299.8 602.0,296.8 603.4,293.5 604.7,289.9 606.1,285.8 607.4,281.3 608.8,276.2 610.1,270.5 611.5,264.2 612.8,257.3 614.2,250.2 615.5,243.9 616.9,240.6 618.2,242.1 619.6,247.7 620.9,255.3 622.3,263.2 623.6,270.8 625.0,277.7 626.3,283.9 627.7,289.5 629.0,294.6 630.4,299.2 631.7,303.5 633.1,307.3 634.4,310.9 635.8,314.2 637.1,317.2 638.5,319.9 639.8,322.5 641.2,324.8 642.5,326.9 643.9,328.9 645.2,330.7 646.6,332.3 647.9,333.7 649.3,335.0 650.6,336.2 652.0,337.1 653.3,338.0 654.7,338.6 656.0,339.2 657.4,339.5 658.7,339.8 660.1,339.8 661.4,339.7 662.8,339.5 664.1,339.0 665.5,338.4 666.8,337.6 668.2,336.6 669.5,335.3 670.9,333.8 672.2,332.0 673.6,330.0 674.9,327.5 676.3,324.7 677.6,321.3 679.0,317.4 680.3,312.6 681.7,306.9 683.0,299.8 684.4,290.7 685.7,278.4 687.1,260.1 688.4,225.8 689.8,153.8 691.1,243.5 692.5,273.3 693.8,292.1 695.2,306.1 696.5,317.4 697.9,327.0 699.2,335.4 700.6,342.9 701.9,349.7 703.3,356.0 704.6,361.9 706.0,367.5 707.3,372.8 708.7,377.8 710.0,382.7 711.4,387.4 712.7,392.0 714.1,396.4 715.4,400.8 716.8,405.1 718.1,409.4 719.5,413.6 720.8,417.8 722.2,422.0 723.5,426.3 724.9,430.5 726.2,434.7 727.6,439.0 728.9,443.4 730.3,447.8 731.6,452.4 733.0,457.0 734.3,461.8 735.7,466.8 737.0,471.9 738.4,477.3 739.7,480.0 741.1,480.0 742.4,480.0 743.8,480.0 745.1,480.0 746.5,480.0 747.8,480.0 749.2,480.0 750.5,480.0 751.9,480.0 753.2,480.0 754.6,480.0 755.9,480.0 757.3,480.0 758.6,480.0 760.0,480.0" fill="none" stroke="#ffb84a" stroke-width="1.6" opacity="0.9"><title>M100_Q100</title></polyline>
<rect x="768" y="56" width="186" height="102" fill="#121218" stroke="#3a3a46" stroke-width="0.5"/>
<line x1="774" y1="70" x2="796" y2="70" stroke="#4aa3ff" stroke-width="3"/>
<text x="802" y="74" fill="#e0e0e8" font-weight="bold">M0_Q0</text>
<text x="802" y="86" fill="#888" font-size="9">peak 195 Hz (+18 dB)</text>
<line x1="774" y1="92" x2="796" y2="92" stroke="#6aff9a" stroke-width="3"/>
<text x="802" y="96" fill="#e0e0e8" font-weight="bold">M0_Q100</text>
<text x="802" y="108" fill="#888" font-size="9">peak 195 Hz (+18 dB)</text>
<line x1="774" y1="114" x2="796" y2="114" stroke="#ff6a4a" stroke-width="3"/>
<text x="802" y="118" fill="#e0e0e8" font-weight="bold">M100_Q0</text>
<text x="802" y="130" fill="#888" font-size="9">peak 157 Hz (+36 dB)</text>
<line x1="774" y1="136" x2="796" y2="136" stroke="#ffb84a" stroke-width="3"/>
<text x="802" y="140" fill="#e0e0e8" font-weight="bold">M100_Q100</text>
<text x="802" y="152" fill="#888" font-size="9">peak 195 Hz (+39 dB)</text>
</svg>